<mxfile host="app.diagrams.net" modified="2021-02-18T21:56:35.584Z" agent="5.0 (Windows NT 10.0; Win64; x64) AppleWebKit/537.36 (KHTML, like Gecko) Chrome/88.0.4324.182 Safari/537.36" etag="9-wTZL9r0prBJq5w3W98" version="14.3.2" type="github">
  <diagram id="oWiosm3CoJESCjJ-nZ4r" name="Page-1">
    <mxGraphModel dx="998" dy="542" grid="1" gridSize="10" guides="1" tooltips="1" connect="1" arrows="1" fold="1" page="1" pageScale="1" pageWidth="827" pageHeight="1169" math="0" shadow="0">
      <root>
        <mxCell id="0" />
        <mxCell id="1" parent="0" />
        <mxCell id="Th-WsZIlXwGT3iPYg-UK-3" value="" style="edgeStyle=orthogonalEdgeStyle;rounded=0;orthogonalLoop=1;jettySize=auto;html=1;" edge="1" parent="1" source="Th-WsZIlXwGT3iPYg-UK-1" target="Th-WsZIlXwGT3iPYg-UK-2">
          <mxGeometry relative="1" as="geometry" />
        </mxCell>
        <mxCell id="Th-WsZIlXwGT3iPYg-UK-1" value="Inicio" style="ellipse;whiteSpace=wrap;html=1;" vertex="1" parent="1">
          <mxGeometry x="120" y="50" width="120" height="80" as="geometry" />
        </mxCell>
        <mxCell id="Th-WsZIlXwGT3iPYg-UK-6" value="" style="edgeStyle=orthogonalEdgeStyle;rounded=0;orthogonalLoop=1;jettySize=auto;html=1;entryX=0.5;entryY=0;entryDx=0;entryDy=0;" edge="1" parent="1" source="Th-WsZIlXwGT3iPYg-UK-2" target="Th-WsZIlXwGT3iPYg-UK-4">
          <mxGeometry relative="1" as="geometry" />
        </mxCell>
        <mxCell id="Th-WsZIlXwGT3iPYg-UK-2" value="Ingresa el nÃºmero" style="strokeWidth=1;html=1;shape=mxgraph.flowchart.display;whiteSpace=wrap;" vertex="1" parent="1">
          <mxGeometry x="130" y="170" width="100" height="60" as="geometry" />
        </mxCell>
        <mxCell id="Th-WsZIlXwGT3iPYg-UK-7" value="" style="edgeStyle=orthogonalEdgeStyle;rounded=0;orthogonalLoop=1;jettySize=auto;html=1;" edge="1" parent="1" source="Th-WsZIlXwGT3iPYg-UK-4" target="Th-WsZIlXwGT3iPYg-UK-5">
          <mxGeometry relative="1" as="geometry" />
        </mxCell>
        <mxCell id="Th-WsZIlXwGT3iPYg-UK-4" value="Leer n" style="shape=parallelogram;perimeter=parallelogramPerimeter;whiteSpace=wrap;html=1;fixedSize=1;strokeWidth=1;" vertex="1" parent="1">
          <mxGeometry x="120" y="260" width="120" height="60" as="geometry" />
        </mxCell>
        <mxCell id="Th-WsZIlXwGT3iPYg-UK-5" value="n mod 2=0" style="rhombus;whiteSpace=wrap;html=1;strokeWidth=1;" vertex="1" parent="1">
          <mxGeometry x="140" y="340" width="80" height="80" as="geometry" />
        </mxCell>
        <mxCell id="Th-WsZIlXwGT3iPYg-UK-18" value="" style="edgeStyle=orthogonalEdgeStyle;rounded=0;orthogonalLoop=1;jettySize=auto;html=1;" edge="1" parent="1" source="Th-WsZIlXwGT3iPYg-UK-8" target="Th-WsZIlXwGT3iPYg-UK-17">
          <mxGeometry relative="1" as="geometry" />
        </mxCell>
        <mxCell id="Th-WsZIlXwGT3iPYg-UK-8" value="&quot;Es par&quot;+n" style="strokeWidth=1;html=1;shape=mxgraph.flowchart.display;whiteSpace=wrap;" vertex="1" parent="1">
          <mxGeometry x="250" y="430" width="100" height="60" as="geometry" />
        </mxCell>
        <mxCell id="Th-WsZIlXwGT3iPYg-UK-9" value="&quot;Es impar&quot;+n" style="strokeWidth=1;html=1;shape=mxgraph.flowchart.display;whiteSpace=wrap;" vertex="1" parent="1">
          <mxGeometry x="20" y="430" width="100" height="60" as="geometry" />
        </mxCell>
        <mxCell id="Th-WsZIlXwGT3iPYg-UK-10" value="" style="endArrow=classic;html=1;exitX=1;exitY=0.5;exitDx=0;exitDy=0;entryX=0.5;entryY=0;entryDx=0;entryDy=0;entryPerimeter=0;" edge="1" parent="1" source="Th-WsZIlXwGT3iPYg-UK-5" target="Th-WsZIlXwGT3iPYg-UK-8">
          <mxGeometry width="50" height="50" relative="1" as="geometry">
            <mxPoint x="390" y="550" as="sourcePoint" />
            <mxPoint x="440" y="500" as="targetPoint" />
            <Array as="points">
              <mxPoint x="300" y="380" />
            </Array>
          </mxGeometry>
        </mxCell>
        <mxCell id="Th-WsZIlXwGT3iPYg-UK-11" value="" style="endArrow=classic;html=1;exitX=0;exitY=0.5;exitDx=0;exitDy=0;entryX=0.5;entryY=0;entryDx=0;entryDy=0;entryPerimeter=0;" edge="1" parent="1" source="Th-WsZIlXwGT3iPYg-UK-5" target="Th-WsZIlXwGT3iPYg-UK-9">
          <mxGeometry width="50" height="50" relative="1" as="geometry">
            <mxPoint x="390" y="550" as="sourcePoint" />
            <mxPoint x="440" y="500" as="targetPoint" />
            <Array as="points">
              <mxPoint x="70" y="380" />
            </Array>
          </mxGeometry>
        </mxCell>
        <mxCell id="Th-WsZIlXwGT3iPYg-UK-13" value="NO" style="text;html=1;strokeColor=none;fillColor=none;align=center;verticalAlign=middle;whiteSpace=wrap;rounded=0;" vertex="1" parent="1">
          <mxGeometry x="90" y="350" width="40" height="20" as="geometry" />
        </mxCell>
        <mxCell id="Th-WsZIlXwGT3iPYg-UK-16" value="SI" style="text;html=1;strokeColor=none;fillColor=none;align=center;verticalAlign=middle;whiteSpace=wrap;rounded=0;" vertex="1" parent="1">
          <mxGeometry x="260" y="350" width="40" height="20" as="geometry" />
        </mxCell>
        <mxCell id="Th-WsZIlXwGT3iPYg-UK-17" value="Fin" style="ellipse;whiteSpace=wrap;html=1;strokeWidth=1;" vertex="1" parent="1">
          <mxGeometry x="240" y="545" width="120" height="80" as="geometry" />
        </mxCell>
        <mxCell id="Th-WsZIlXwGT3iPYg-UK-19" value="" style="endArrow=classic;html=1;exitX=0.5;exitY=1;exitDx=0;exitDy=0;exitPerimeter=0;entryX=0;entryY=0.5;entryDx=0;entryDy=0;" edge="1" parent="1" source="Th-WsZIlXwGT3iPYg-UK-9" target="Th-WsZIlXwGT3iPYg-UK-17">
          <mxGeometry width="50" height="50" relative="1" as="geometry">
            <mxPoint x="390" y="460" as="sourcePoint" />
            <mxPoint x="440" y="410" as="targetPoint" />
            <Array as="points">
              <mxPoint x="70" y="585" />
            </Array>
          </mxGeometry>
        </mxCell>
      </root>
    </mxGraphModel>
  </diagram>
</mxfile>
